Coordinates
version=1
nRows=8
nColumns=63
inDegrees=yes

Units are S.I. units (second, meters, Newtons, ...)
If the header above contains a line with 'inDegrees', this indicates whether rotational values are in degrees (yes) or radians (no).

endheader
time	pelvis_tilt	pelvis_list	pelvis_rotation	pelvis_tx	pelvis_ty	pelvis_tz	hip_flexion_r	hip_adduction_r	hip_rotation_r	knee_angle_r	knee_angle_r_beta	ankle_angle_r	subtalar_angle_r	mtp_angle_r	hip_flexion_l	hip_adduction_l	hip_rotation_l	knee_angle_l	knee_angle_l_beta	ankle_angle_l	subtalar_angle_l	mtp_angle_l	L5_S1_Flex_Ext	L5_S1_Lat_Bending	L5_S1_axial_rotation	L4_L5_Flex_Ext	L4_L5_Lat_Bending	L4_L5_axial_rotation	L3_L4_Flex_Ext	L3_L4_Lat_Bending	L3_L4_axial_rotation	L2_L3_Flex_Ext	L2_L3_Lat_Bending	L2_L3_axial_rotation	L1_L2_Flex_Ext	L1_L2_Lat_Bending	L1_L2_axial_rotation	L1_T12_Flex_Ext	L1_T12_Lat_Bending	L1_T12_axial_rotation	Abs_r3	Abs_r2	Abs_r1	Abs_t1	Abs_t2	neck_flexion	neck_bending	neck_rotation	arm_flex_r	arm_add_r	arm_rot_r	elbow_flex_r	pro_sup_r	wrist_flex_r	wrist_dev_r	arm_flex_l	arm_add_l	arm_rot_l	elbow_flex_l	pro_sup_l	wrist_flex_l	wrist_dev_l
      3.95000000	      1.20111643	     -5.20279487	     90.43439339	      0.15811937	      0.94068393	      0.42342279	     -6.81954023	      2.71249576	    -11.64596285	      6.03217325	      0.10528128	     29.29474134	     -1.03292472	      0.00000000	     -6.84802372	     -2.46375858	      7.98183920	      0.62338399	      0.01088010	     29.44775850	     -6.47551414	      0.00000000	     -0.25557678	      0.38218168	     -0.85018197	     -0.47463164	      0.50830164	     -0.90331834	     -0.41988709	      0.92923654	     -0.90331834	     -0.29209870	      0.92923654	     -0.74390922	     -0.23732860	      0.77934488	     -0.69077285	     -0.14603657	      0.59199942	     -0.63763648	     -1.82555939	      4.32331561	     -4.72845705	      0.00000000	      0.00000000	      6.33579639	      4.81093217	     -1.78830664	      9.12886629	    -16.28100644	     92.55923839	     22.59709354	     36.30132128	      5.52450693	     -8.25429869	      3.63850230	    -10.73847479	     62.79865505	     22.60923794	     77.28218065	     -1.50876581	      3.84888833
      3.96666667	      1.16278849	     -5.28327737	     90.30184030	      0.15860588	      0.94069499	      0.42336787	     -6.80690004	      2.63452870	    -12.39497544	      5.94421292	      0.10374609	     29.41129920	      0.34486579	      0.00000000	     -6.71789790	     -2.47526143	      5.18039871	      0.65419013	      0.01141777	     30.08181845	     -2.30948650	      0.00000000	     -0.27004286	      0.38065684	     -0.77450915	     -0.50149659	      0.50627360	     -0.82291597	     -0.44365341	      0.92552904	     -0.82291597	     -0.30863198	      0.92552904	     -0.67769550	     -0.25076180	      0.77623543	     -0.62928868	     -0.15430249	      0.58963745	     -0.58088186	     -1.92888913	      4.30606631	     -4.30758753	      0.00000000	      0.00000000	      6.31414871	      4.94704922	     -1.73451051	      8.68706008	    -16.44234245	     90.48409876	     22.96032439	     37.55562625	      4.89954035	     -8.19725358	      3.96322587	    -10.93957229	     64.38809266	     22.90144155	     75.33398749	     -2.22170423	      3.60939112
      3.98333333	      1.10549732	     -5.41001305	     90.51985365	      0.15861645	      0.94068121	      0.42345389	     -6.66148801	      2.58187260	    -13.00086165	      6.06060811	      0.10577757	     29.45799589	      0.90715075	      0.00000000	     -6.50592501	     -2.47931435	      5.22684676	      0.65351416	      0.01140597	     30.06146862	     -1.58494550	      0.00000000	     -0.26583101	      0.37657828	     -0.72028187	     -0.49367477	      0.50084912	     -0.76529949	     -0.43673377	      0.91561244	     -0.76529949	     -0.30381826	      0.91561244	     -0.63024664	     -0.24685068	      0.76791844	     -0.58522902	     -0.15189584	      0.58331976	     -0.54021140	     -1.89880432	      4.25992886	     -4.00599168	      0.00000000	      0.00000000	      6.46439928	      4.89911800	     -2.21855743	      8.10265127	    -16.36368787	     88.43462001	     22.69561292	     39.01309198	      5.05779054	     -8.50916263	      4.51082489	    -10.95927831	     66.39128804	     22.67602540	     74.51267134	     -2.42350918	      3.01789415
      4.00000000	      1.05054876	     -5.50522803	     90.40285465	      0.15905370	      0.94052194	      0.42326982	     -6.56436821	      2.45517976	    -13.69552929	      6.19378074	      0.10810187	     29.61612226	      2.17355100	      0.00000000	     -6.44932190	     -2.40205716	      8.69015677	      0.56592206	      0.00987720	     29.13843049	     -6.23080773	      0.00000000	     -0.25256133	      0.37254693	     -0.60043508	     -0.46903164	      0.49548742	     -0.63796227	     -0.41493300	      0.90581061	     -0.63796227	     -0.28865234	      0.90581061	     -0.52538070	     -0.23452845	      0.75969770	     -0.48785350	     -0.14431354	      0.57707520	     -0.45032631	     -1.80402029	      4.21432539	     -3.33943979	      0.00000000	      0.00000000	      6.81664319	      4.80903145	     -2.80427696	      6.89976714	    -16.48095158	     82.60642668	     22.90420253	     44.36988901	      5.22072268	     -7.53579545	      4.75597497	    -10.92213670	     66.72787533	     22.48403996	     74.63003009	     -1.58367249	      3.01733266
      4.01666667	      1.00413112	     -5.50436468	     90.45594709	      0.15949760	      0.94050284	      0.42285001	     -6.63858474	      2.43103130	    -13.67085799	      6.21591757	      0.10848823	     29.49321165	      2.22229758	      0.00000000	     -6.46348188	     -2.38950760	      8.82403123	      0.56731442	      0.00990150	     29.14833403	     -6.13711730	      0.00000000	     -0.23770426	      0.37058664	     -0.57918252	     -0.44144058	      0.49288023	     -0.61538143	     -0.39052432	      0.90104436	     -0.61538143	     -0.27167220	      0.90104436	     -0.50678471	     -0.22073217	      0.75570028	     -0.47058580	     -0.13582421	      0.57403870	     -0.43438689	     -1.69789774	      4.19215018	     -3.22123945	      0.00000000	      0.00000000	      7.02697639	      4.76538064	     -2.81162237	      6.76290323	    -16.44186428	     82.63789096	     22.88992548	     44.38304353	      5.22503327	     -7.50860224	      4.66854278	    -10.99484785	     66.77446850	     22.45218416	     74.64658996	     -1.57540309	      3.06067730
      4.03333333	      0.74475416	     -5.56222103	     90.55162309	      0.15995014	      0.94038184	      0.42286729	     -6.75930286	      2.22966563	    -13.88398258	      5.94756936	      0.10380467	     29.34761879	      2.38974039	      0.00000000	     -6.40040469	     -2.17643163	      9.09046596	      0.54795257	      0.00956358	     29.20740629	     -5.90688637	      0.00000000	     -0.22343882	      0.33743809	     -0.53908365	     -0.41494823	      0.44879266	     -0.57277637	     -0.36708763	      0.82044697	     -0.57277637	     -0.25536822	      0.82044697	     -0.47169819	     -0.20748529	      0.68810375	     -0.43800546	     -0.12767294	      0.52269160	     -0.40431274	     -1.59600113	      3.81716715	     -2.99822152	      0.00000000	      0.00000000	      7.77749167	      4.34537788	     -3.86434786	      6.51189581	    -16.09106766	     82.30902008	     22.44925919	     44.26692230	      5.25643330	     -7.53641634	      4.96609081	    -11.34425356	     67.88181131	     22.73521791	     75.04801058	     -1.19476352	      4.04372154
      4.05000000	      0.69298499	     -5.59330149	     90.44141141	      0.16051760	      0.94027352	      0.42247681	     -6.81115783	      2.17625447	    -13.87014060	      5.94912971	      0.10383190	     29.23542591	      2.43710993	      0.00000000	     -6.43292213	     -2.14220706	      9.10021783	      0.54296554	      0.00947654	     29.23755437	     -5.90165718	      0.00000000	     -0.20564144	      0.33510743	     -0.55524994	     -0.38189672	      0.44569288	     -0.58995306	     -0.33784832	      0.81478021	     -0.58995306	     -0.23502760	      0.81478021	     -0.48584370	     -0.19095864	      0.68335107	     -0.45114058	     -0.11750352	      0.51908141	     -0.41643746	     -1.46887625	      3.79080229	     -3.08813361	      0.00000000	      0.00000000	      8.07249080	      4.23948654	     -3.85709835	      6.46998194	    -16.04397140	     82.31751710	     22.44287371	     44.27319531	      5.26467589	     -7.51072429	      4.75324734	    -11.43297832	     68.01128522	     22.62188214	     75.08095011	     -1.16835946	      4.14999556
      4.06666667	      0.49564745	     -5.76456644	     90.29952214	      0.16092483	      0.94005093	      0.42255952	     -6.77678173	      1.97644243	    -13.80746294	      5.75823337	      0.10050013	     29.12555563	      2.55623078	      0.00000000	     -6.27661359	     -1.92909165	      9.01544697	      0.55456256	      0.00967894	     29.12822997	     -5.92864045	      0.00000000	     -0.18513477	      0.31865847	     -0.60876735	     -0.34381377	      0.42381577	     -0.64681531	     -0.30415791	      0.77478621	     -0.64681531	     -0.21159052	      0.77478621	     -0.53267143	     -0.17191614	      0.64980836	     -0.49462347	     -0.10578601	      0.49360197	     -0.45657551	     -1.32239912	      3.60472837	     -3.38578135	      0.00000000	      0.00000000	      8.67958110	      3.74857862	     -3.76967887	      6.59763577	    -15.88133065	     82.40248834	     22.29880694	     44.34223982	      5.25824306	     -7.30265022	      4.63173672	    -11.51950132	     68.39505243	     22.44980763	     75.23093779	     -1.13583742	      4.53704233
